<svg xmlns="http://www.w3.org/2000/svg" width="50" height="50" style="width:100%;height:100%;transform:translate3d(0,0,0);content-visibility:visible" viewBox="0 0 50 50"><defs><clipPath id="b"><path d="M0 0h50v50H0z"/></clipPath><path id="a" style="display:none"/><mask id="c" mask-type="alpha"><use xmlns:ns1="http://www.w3.org/1999/xlink" ns1:href="#a"/></mask></defs><g clip-path="url(#b)"><path fill="#C0F7E6" d="M0-25c13.797 0 25 11.203 25 25S13.797 25 0 25-25 13.797-25 0s11.203-25 25-25z" style="display:block" transform="translate(25 25)"/><g style="display:block"><path fill="#FFF" d="M35.684 23.955H25.426l-9.159 9.118L25.426 42h10.45l-9.42-8.927 9.228-9.118zM25.426 8H36L13.383 30.223 8 24.905 25.426 8z"/><path fill="none" stroke="#121331" stroke-linejoin="round" stroke-width=".75" d="M35.684 23.955H25.426l-9.159 9.118L25.426 42h10.45l-9.42-8.927 9.228-9.118zM25.426 8H36L13.383 30.223 8 24.905 25.426 8z"/></g><g mask="url(#c)" style="display:none"><path/><path fill="none"/></g><g style="display:none"><path/><path fill="none"/></g><g style="display:none"><path/><path fill="none"/></g></g></svg>