<svg xmlns="http://www.w3.org/2000/svg" width="50" height="50" style="width:100%;height:100%;transform:translate3d(0,0,0);content-visibility:visible" viewBox="0 0 50 50"><defs><clipPath id="a"><path d="M0 0h50v50H0z"/></clipPath></defs><g clip-path="url(#a)"><path fill="#C0F7E6" d="M0-25c13.797 0 25 11.203 25 25S13.797 25 0 25-25 13.797-25 0s11.203-25 25-25z" style="display:block" transform="translate(25 25)"/><g style="display:block"><path fill="#FFF" d="M25 22a3.001 3.001 0 0 1 0 6 3.001 3.001 0 0 1 0-6z"/><path fill="none" stroke="#121331" stroke-width=".75" d="M25 22a3.001 3.001 0 0 1 0 6 3.001 3.001 0 0 1 0-6z"/></g><path fill="none" stroke="#121331" stroke-width=".75" d="M0-19c3.863 0 7 8.514 7 19S3.863 19 0 19s-7-8.514-7-19 3.137-19 7-19z" style="display:block" transform="rotate(-90 25 0)"/><path fill="none" stroke="#121331" stroke-width=".75" d="M0-18.677c3.965 0 7.183 8.37 7.183 18.677 0 10.308-3.218 18.677-7.183 18.677S-7.183 10.307-7.183 0c0-10.308 3.218-18.677 7.183-18.677z" style="display:block" transform="rotate(-30 59.585 -34.032)"/><path fill="none" stroke="#121331" stroke-width=".75" d="M0-18.677c3.965 0 7.183 8.37 7.183 18.677 0 10.308-3.218 18.677-7.183 18.677S-7.183 10.307-7.183 0c0-10.308 3.218-18.677 7.183-18.677z" style="display:block" transform="rotate(30 -34.586 59.265)"/></g></svg>