<svg xmlns="http://www.w3.org/2000/svg" width="50" height="50" style="width:100%;height:100%;transform:translate3d(0,0,0);content-visibility:visible" viewBox="0 0 50 50"><defs><clipPath id="a"><path d="M0 0h50v50H0z"/></clipPath></defs><g clip-path="url(#a)"><path fill="#C0F7E6" d="M0-25c13.797 0 25 11.203 25 25S13.797 25 0 25-25 13.797-25 0s11.203-25 25-25z" style="display:block" transform="translate(25 25)"/><g style="display:block"><path fill="#FFF" d="m18.286 18.138-2.916-2.916-9.938 9.938 9.938 9.944 2.916-2.916-7.022-7.028 7.022-7.022z"/><path fill="none" stroke="#121331" stroke-linejoin="round" stroke-width=".75" d="m18.286 18.138-2.916-2.916-9.938 9.938 9.938 9.944 2.916-2.916-7.022-7.028 7.022-7.022z"/></g><g style="display:block"><path fill="#FFF" d="M29.646 9h4.177L21.052 41h-4.177L29.646 9z"/><path fill="none" stroke="#121331" stroke-linejoin="round" stroke-width=".75" d="M29.646 9h4.177L21.052 41h-4.177L29.646 9z"/></g><g style="display:block"><path fill="#FFF" d="m36.188 15.223-2.978 3.008 7.172 7.245-7.172 7.251 2.978 3.008 10.15-10.259-10.15-10.253z"/><path fill="none" stroke="#121331" stroke-linejoin="round" stroke-width=".75" d="m36.188 15.223-2.978 3.008 7.172 7.245-7.172 7.251 2.978 3.008 10.15-10.259-10.15-10.253z"/></g></g></svg>