{
  "accessors": [
    {
      "bufferView": 2,
      "componentType": 5126,
      "count": 12963,
      "max": [
        10.628546714782715,
        12.245152473449707,
        14.149346351623535
      ],
      "min": [
        -19.95218849182129,
        -14.431246757507324,
        -2.2925662994384766
      ],
      "type": "VEC3"
    },
    {
      "bufferView": 2,
      "byteOffset": 155556,
      "componentType": 5126,
      "count": 12963,
      "max": [
        1.0,
        1.0,
        1.0
      ],
      "min": [
        -1.0,
        -1.0,
        -1.0
      ],
      "type": "VEC3"
    },
    {
      "bufferView": 1,
      "componentType": 5126,
      "count": 12963,
      "max": [
        0.9973961114883423,
        0.999500036239624
      ],
      "min": [
        0.0005000000237487257,
        0.0005000000237487257
      ],
      "type": "VEC2"
    },
    {
      "bufferView": 0,
      "componentType": 5125,
      "count": 61410,
      "type": "SCALAR"
    },
    {
      "bufferView": 2,
      "byteOffset": 311112,
      "componentType": 5126,
      "count": 2223,
      "max": [
        4.440833568572998,
        2.8290927410125732,
        1.0510166883468628
      ],
      "min": [
        -4.440833568572998,
        -7.544989585876465,
        -14.766207695007324
      ],
      "type": "VEC3"
    },
    {
      "bufferView": 2,
      "byteOffset": 337788,
      "componentType": 5126,
      "count": 2223,
      "max": [
        0.9982435703277588,
        0.9999886751174927,
        0.9991409778594971
      ],
      "min": [
        -0.9982435703277588,
        -0.9996662735939026,
        -0.9997984766960144
      ],
      "type": "VEC3"
    },
    {
      "bufferView": 1,
      "byteOffset": 103704,
      "componentType": 5126,
      "count": 2223,
      "max": [
        0.999500036239624,
        0.9948427081108093
      ],
      "min": [
        0.0005000000237487257,
        0.0005000000237487257
      ],
      "type": "VEC2"
    },
    {
      "bufferView": 0,
      "byteOffset": 245640,
      "componentType": 5125,
      "count": 11328,
      "type": "SCALAR"
    }
  ],
  "asset": {
    "extras": {
      "author": "sheana (https://sketchfab.com/sheana)",
      "license": "CC-BY-4.0 (http://creativecommons.org/licenses/by/4.0/)",
      "source": "https://sketchfab.com/3d-models/bear-in-an-igloo-1bfb10cb859740d7a57ef30c8919840c",
      "title": "Bear in an igloo"
    },
    "generator": "Sketchfab-14.64.0",
    "version": "2.0"
  },
  "bufferViews": [
    {
      "buffer": 0,
      "byteLength": 290952,
      "name": "floatBufferViews",
      "target": 34963
    },
    {
      "buffer": 0,
      "byteLength": 121488,
      "byteOffset": 290952,
      "byteStride": 8,
      "name": "floatBufferViews",
      "target": 34962
    },
    {
      "buffer": 0,
      "byteLength": 364464,
      "byteOffset": 412440,
      "byteStride": 12,
      "name": "floatBufferViews",
      "target": 34962
    }
  ],
  "buffers": [
    {
      "byteLength": 776904,
      "uri": "scene.bin"
    }
  ],
  "images": [
    {
      "uri": "textures/igloo_baseColor.png"
    },
    {
      "uri": "textures/igloo_metallicRoughness.png"
    },
    {
      "uri": "textures/igloo_emissive.png"
    },
    {
      "uri": "textures/bear_baseColor.png"
    },
    {
      "uri": "textures/bear_metallicRoughness.png"
    }
  ],
  "materials": [
    {
      "doubleSided": true,
      "emissiveFactor": [
        1.0,
        1.0,
        1.0
      ],
      "emissiveTexture": {
        "index": 2
      },
      "name": "igloo",
      "occlusionTexture": {
        "index": 1
      },
      "pbrMetallicRoughness": {
        "baseColorTexture": {
          "index": 0
        },
        "metallicFactor": 0.0,
        "metallicRoughnessTexture": {
          "index": 1
        },
        "roughnessFactor": 0.8030500664382977
      }
    },
    {
      "doubleSided": true,
      "name": "bear",
      "occlusionTexture": {
        "index": 4
      },
      "pbrMetallicRoughness": {
        "baseColorTexture": {
          "index": 3
        },
        "metallicFactor": 0.0,
        "metallicRoughnessTexture": {
          "index": 4
        },
        "roughnessFactor": 0.6
      }
    }
  ],
  "meshes": [
    {
      "name": "igloo_igloo_0",
      "primitives": [
        {
          "attributes": {
            "NORMAL": 1,
            "POSITION": 0,
            "TEXCOORD_0": 2
          },
          "indices": 3,
          "material": 0,
          "mode": 4
        }
      ]
    },
    {
      "name": "bear_bear_0",
      "primitives": [
        {
          "attributes": {
            "NORMAL": 5,
            "POSITION": 4,
            "TEXCOORD_0": 6
          },
          "indices": 7,
          "material": 1,
          "mode": 4
        }
      ]
    }
  ],
  "nodes": [
    {
      "children": [
        1
      ],
      "matrix": [
        1.0,
        0.0,
        0.0,
        0.0,
        0.0,
        2.220446049250313e-16,
        -1.0,
        0.0,
        0.0,
        1.0,
        2.220446049250313e-16,
        0.0,
        0.0,
        0.0,
        0.0,
        1.0
      ],
      "name": "Sketchfab_model"
    },
    {
      "children": [
        2
      ],
      "matrix": [
        0.02539999969303608,
        0.0,
        0.0,
        0.0,
        0.0,
        0.0,
        0.02539999969303608,
        0.0,
        0.0,
        -0.02539999969303608,
        0.0,
        0.0,
        0.0,
        0.0,
        0.0,
        1.0
      ],
      "name": "igloo.fbx"
    },
    {
      "children": [
        3,
        5
      ],
      "name": "RootNode"
    },
    {
      "children": [
        4
      ],
      "matrix": [
        4.3711387731626417e-08,
        -5.551115123125783e-17,
        -0.9999999999999993,
        0.0,
        -0.9999999999999993,
        0.0,
        -4.371138789815987e-08,
        0.0,
        5.551115123125783e-17,
        1.0000000000000002,
        -2.220446049250313e-16,
        0.0,
        0.13701915740966797,
        2.4797677993774414,
        -2.0554542541503906,
        1.0
      ],
      "name": "igloo"
    },
    {
      "mesh": 0,
      "name": "igloo_igloo_0"
    },
    {
      "children": [
        6
      ],
      "matrix": [
        1.0,
        0.0,
        0.0,
        0.0,
        0.0,
        0.9063077556913046,
        0.42261832896100293,
        0.0,
        0.0,
        -0.42261832896100293,
        0.9063077556913046,
        0.0,
        0.15542888641357422,
        1.220132827758789,
        14.78299331665039,
        1.0
      ],
      "name": "bear"
    },
    {
      "mesh": 1,
      "name": "bear_bear_0"
    }
  ],
  "samplers": [
    {
      "magFilter": 9729,
      "minFilter": 9987,
      "wrapS": 10497,
      "wrapT": 10497
    }
  ],
  "scene": 0,
  "scenes": [
    {
      "name": "Sketchfab_Scene",
      "nodes": [
        0
      ]
    }
  ],
  "textures": [
    {
      "sampler": 0,
      "source": 0
    },
    {
      "sampler": 0,
      "source": 1
    },
    {
      "sampler": 0,
      "source": 2
    },
    {
      "sampler": 0,
      "source": 3
    },
    {
      "sampler": 0,
      "source": 4
    }
  ]
}
